<svg xmlns="http://www.w3.org/2000/svg" style="position:absolute;width:0;height:0;overflow:hidden" aria-hidden="true">
  <defs>

    <symbol id="icon-regulation" viewBox="0 0 24 24">
      <path d="M6 3h8l4 4v11a2 2 0 0 1-2 2H6a2 2 0 0 1-2-2V5a2 2 0 0 1 2-2z"></path>
      <path d="M14 3v4h4"></path>
      <circle cx="12" cy="14" r="2.4"></circle>
      <path d="M10 17l-1 3M14 17l1 3"></path>
    </symbol>

    <symbol id="icon-obligation" viewBox="0 0 24 24">
      <path d="M7 4h10v3H7zM7 5H5a1 1 0 0 0-1 1v14a1 1 0 0 0 1 1h14a1 1 0 0 0 1-1V6a1 1 0 0 0-1-1h-2"></path>
      <path d="M8 13l3 3 5-6"></path>
    </symbol>

    <symbol id="icon-conflict" viewBox="0 0 24 24">
      <path d="M4 7h11"></path>
      <path d="M11 3l4 4-4 4"></path>
      <path d="M20 17H9"></path>
      <path d="M13 13l-4 4 4 4"></path>
    </symbol>

    <symbol id="icon-jurisdiction" viewBox="0 0 24 24">
      <circle cx="12" cy="12" r="8.5"></circle>
      <path d="M3.5 12h17"></path>
      <path d="M12 3.5c2.5 2.6 4 5.7 4 8.5s-1.5 5.9-4 8.5"></path>
      <path d="M12 3.5c-2.5 2.6-4 5.7-4 8.5s1.5 5.9 4 8.5"></path>
    </symbol>

    <symbol id="icon-control" viewBox="0 0 24 24">
      <line x1="4" y1="7" x2="20" y2="7"></line>
      <line x1="4" y1="12" x2="20" y2="12"></line>
      <line x1="4" y1="17" x2="20" y2="17"></line>
      <circle cx="9" cy="7" r="2"></circle>
      <circle cx="15" cy="12" r="2"></circle>
      <circle cx="7" cy="17" r="2"></circle>
    </symbol>

    <symbol id="icon-audit-trail" viewBox="0 0 24 24">
      <circle cx="6" cy="7" r="1.5"></circle>
      <circle cx="6" cy="12" r="1.5"></circle>
      <circle cx="6" cy="17" r="1.5"></circle>
      <line x1="10" y1="7" x2="20" y2="7"></line>
      <line x1="10" y1="12" x2="20" y2="12"></line>
      <line x1="10" y1="17" x2="20" y2="17"></line>
    </symbol>

    <symbol id="icon-monitor" viewBox="0 0 24 24">
      <path d="M2 12s3.5-7 10-7 10 7 10 7-3.5 7-10 7S2 12 2 12z"></path>
      <circle cx="12" cy="12" r="3"></circle>
    </symbol>

    <symbol id="icon-search" viewBox="0 0 24 24">
      <circle cx="11" cy="11" r="6"></circle>
      <line x1="16" y1="16" x2="20" y2="20"></line>
    </symbol>

    <symbol id="icon-filter" viewBox="0 0 24 24">
      <path d="M4 5h16l-6 8v6l-4-2v-4z"></path>
    </symbol>

    <symbol id="icon-export" viewBox="0 0 24 24">
      <path d="M14 4h6v6"></path>
      <line x1="20" y1="4" x2="11" y2="13"></line>
      <path d="M19 14v5a1 1 0 0 1-1 1H5a1 1 0 0 1-1-1V6a1 1 0 0 1 1-1h5"></path>
    </symbol>

    <symbol id="icon-upload" viewBox="0 0 24 24">
      <path d="M4 15v3a2 2 0 0 0 2 2h12a2 2 0 0 0 2-2v-3"></path>
      <path d="M12 4v12"></path>
      <path d="M7 9l5-5 5 5"></path>
    </symbol>

    <symbol id="icon-user" viewBox="0 0 24 24">
      <circle cx="12" cy="8" r="4"></circle>
      <path d="M4 20c1.4-3.6 4.6-6 8-6s6.6 2.4 8 6"></path>
    </symbol>

    <symbol id="icon-settings" viewBox="0 0 24 24">
      <circle cx="12" cy="12" r="3"></circle>
      <path d="M19.4 15a1.65 1.65 0 0 0 .33 1.82l.06.06a2 2 0 1 1-2.83 2.83l-.06-.06a1.65 1.65 0 0 0-1.82-.33 1.65 1.65 0 0 0-1 1.51V21a2 2 0 1 1-4 0v-.09A1.65 1.65 0 0 0 9 19.4a1.65 1.65 0 0 0-1.82.33l-.06.06a2 2 0 1 1-2.83-2.83l.06-.06A1.65 1.65 0 0 0 4.6 15a1.65 1.65 0 0 0-1.51-1H3a2 2 0 1 1 0-4h.09A1.65 1.65 0 0 0 4.6 9a1.65 1.65 0 0 0-.33-1.82l-.06-.06a2 2 0 1 1 2.83-2.83l.06.06A1.65 1.65 0 0 0 9 4.6a1.65 1.65 0 0 0 1-1.51V3a2 2 0 1 1 4 0v.09a1.65 1.65 0 0 0 1 1.51 1.65 1.65 0 0 0 1.82-.33l.06-.06a2 2 0 1 1 2.83 2.83l-.06.06A1.65 1.65 0 0 0 19.4 9a1.65 1.65 0 0 0 1.51 1H21a2 2 0 1 1 0 4h-.09a1.65 1.65 0 0 0-1.51 1z"></path>
    </symbol>

    <symbol id="icon-chevron-up" viewBox="0 0 24 24">
      <polyline points="6 15 12 9 18 15"></polyline>
    </symbol>

    <symbol id="icon-chevron-down" viewBox="0 0 24 24">
      <polyline points="6 9 12 15 18 9"></polyline>
    </symbol>

    <symbol id="icon-chevron-left" viewBox="0 0 24 24">
      <polyline points="15 6 9 12 15 18"></polyline>
    </symbol>

    <symbol id="icon-chevron-right" viewBox="0 0 24 24">
      <polyline points="9 6 15 12 9 18"></polyline>
    </symbol>

    <symbol id="icon-close" viewBox="0 0 24 24">
      <line x1="6" y1="6" x2="18" y2="18"></line>
      <line x1="18" y1="6" x2="6" y2="18"></line>
    </symbol>

    <symbol id="icon-check" viewBox="0 0 24 24">
      <polyline points="4 12 10 18 20 6"></polyline>
    </symbol>

    <symbol id="icon-alert" viewBox="0 0 24 24">
      <path d="M12 3l10 17H2z"></path>
      <line x1="12" y1="10" x2="12" y2="14"></line>
      <circle cx="12" cy="17.5" r="0.6" fill="currentColor" stroke="none"></circle>
    </symbol>

    <symbol id="icon-info" viewBox="0 0 24 24">
      <circle cx="12" cy="12" r="9"></circle>
      <line x1="12" y1="11" x2="12" y2="16"></line>
      <circle cx="12" cy="8" r="0.6" fill="currentColor" stroke="none"></circle>
    </symbol>

    <symbol id="icon-calendar" viewBox="0 0 24 24">
      <rect x="3.5" y="5" width="17" height="15" rx="1"></rect>
      <line x1="3.5" y1="10" x2="20.5" y2="10"></line>
      <line x1="8" y1="3" x2="8" y2="7"></line>
      <line x1="16" y1="3" x2="16" y2="7"></line>
    </symbol>

    <symbol id="icon-lock" viewBox="0 0 24 24">
      <rect x="4" y="11" width="16" height="10" rx="1"></rect>
      <path d="M8 11V7a4 4 0 0 1 8 0v4"></path>
    </symbol>

    <symbol id="icon-link" viewBox="0 0 24 24">
      <path d="M10 13a5 5 0 0 0 7 0l3-3a5 5 0 1 0-7-7l-1 1"></path>
      <path d="M14 11a5 5 0 0 0-7 0l-3 3a5 5 0 1 0 7 7l1-1"></path>
    </symbol>

    <symbol id="icon-copy" viewBox="0 0 24 24">
      <rect x="8" y="8" width="12" height="12" rx="1"></rect>
      <path d="M4 16V5a1 1 0 0 1 1-1h11"></path>
    </symbol>

    <symbol id="icon-external-link" viewBox="0 0 24 24">
      <path d="M19 13v6a1 1 0 0 1-1 1H5a1 1 0 0 1-1-1V6a1 1 0 0 1 1-1h6"></path>
      <path d="M15 4h5v5"></path>
      <line x1="11" y1="13" x2="20" y2="4"></line>
    </symbol>

    <symbol id="icon-sun" viewBox="0 0 24 24">
      <circle cx="12" cy="12" r="4"></circle>
      <line x1="12" y1="2" x2="12" y2="4"></line>
      <line x1="12" y1="20" x2="12" y2="22"></line>
      <line x1="2" y1="12" x2="4" y2="12"></line>
      <line x1="20" y1="12" x2="22" y2="12"></line>
      <line x1="4.9" y1="4.9" x2="6.3" y2="6.3"></line>
      <line x1="17.7" y1="17.7" x2="19.1" y2="19.1"></line>
      <line x1="4.9" y1="19.1" x2="6.3" y2="17.7"></line>
      <line x1="17.7" y1="6.3" x2="19.1" y2="4.9"></line>
    </symbol>

    <symbol id="icon-moon" viewBox="0 0 24 24">
      <path d="M21 13a8 8 0 0 1-10-10 8 8 0 1 0 10 10z"></path>
    </symbol>

  </defs>
</svg>