<svg xmlns="http://www.w3.org/2000/svg" style="position:absolute;width:0;height:0;overflow:hidden" aria-hidden="true">
  <defs>

    <symbol id="flag-eu" viewBox="0 0 24 16">
      <rect width="24" height="16" fill="#003399"></rect>
      <g fill="#FFCC00">
        <circle cx="12" cy="4.5" r="0.7"></circle>
        <circle cx="15.4" cy="5.4" r="0.7"></circle>
        <circle cx="17" cy="8" r="0.7"></circle>
        <circle cx="15.4" cy="10.6" r="0.7"></circle>
        <circle cx="12" cy="11.5" r="0.7"></circle>
        <circle cx="8.6" cy="10.6" r="0.7"></circle>
        <circle cx="7" cy="8" r="0.7"></circle>
        <circle cx="8.6" cy="5.4" r="0.7"></circle>
      </g>
    </symbol>

    <symbol id="flag-uk" viewBox="0 0 24 16">
      <rect width="24" height="16" fill="#012169"/>
      <path d="M0,0 L24,16 M24,0 L0,16" stroke="#FFFFFF" stroke-width="3"/>
      <path d="M0,0 L24,16 M24,0 L0,16" stroke="#C8102E" stroke-width="1.5"/>
      <rect x="10" y="0" width="4" height="16" fill="#FFFFFF"/>
      <rect x="0" y="6" width="24" height="4" fill="#FFFFFF"/>
      <rect x="11" y="0" width="2" height="16" fill="#C8102E"/>
      <rect x="0" y="7" width="24" height="2" fill="#C8102E"/>
    </symbol>

    <symbol id="flag-us" viewBox="0 0 24 16">
      <rect width="24" height="16" fill="#FFFFFF"></rect>
      <g fill="#B22234">
        <rect width="24" height="1.23"></rect>
        <rect y="2.46" width="24" height="1.23"></rect>
        <rect y="4.92" width="24" height="1.24"></rect>
        <rect y="7.38" width="24" height="1.24"></rect>
        <rect y="9.84" width="24" height="1.24"></rect>
        <rect y="12.30" width="24" height="1.24"></rect>
        <rect y="14.77" width="24" height="1.23"></rect>
      </g>
      <rect width="10" height="8.6" fill="#3C3B6E"></rect>
      <g fill="#FFFFFF">
        <circle cx="2" cy="2" r="0.5"></circle>
        <circle cx="5" cy="2" r="0.5"></circle>
        <circle cx="8" cy="2" r="0.5"></circle>
        <circle cx="3.5" cy="4" r="0.5"></circle>
        <circle cx="6.5" cy="4" r="0.5"></circle>
        <circle cx="2" cy="6" r="0.5"></circle>
        <circle cx="5" cy="6" r="0.5"></circle>
        <circle cx="8" cy="6" r="0.5"></circle>
      </g>
    </symbol>

    <symbol id="flag-ca" viewBox="0 0 24 16">
      <rect width="24" height="16" fill="#FFFFFF"></rect>
      <rect width="6" height="16" fill="#D52B1E"></rect>
      <rect x="18" width="6" height="16" fill="#D52B1E"></rect>
      <path d="M12 4l0.7 1.7L14.3 5.4l-0.7 1.6 1.6 0.9-2 0.6 0.6 2.2-1.8-1.3-1.8 1.3 0.6-2.2-2-0.6 1.6-0.9-0.7-1.6 1.6 0.3z" fill="#D52B1E"></path>
    </symbol>

    <symbol id="flag-ch" viewBox="0 0 24 16">
      <rect width="24" height="16" fill="#D52B1E"></rect>
      <rect x="10.4" y="3.6" width="3.2" height="8.8" fill="#FFFFFF"></rect>
      <rect x="7.6" y="6.4" width="8.8" height="3.2" fill="#FFFFFF"></rect>
    </symbol>

    <symbol id="flag-pe" viewBox="0 0 24 16">
      <rect width="8" height="16" fill="#D91023"></rect>
      <rect x="8" width="8" height="16" fill="#FFFFFF"></rect>
      <rect x="16" width="8" height="16" fill="#D91023"></rect>
    </symbol>

    <symbol id="flag-pa" viewBox="0 0 24 16">
      <rect width="12" height="8" fill="#FFFFFF"></rect>
      <rect x="12" width="12" height="8" fill="#D21034"></rect>
      <rect y="8" width="12" height="8" fill="#005AA9"></rect>
      <rect x="12" y="8" width="12" height="8" fill="#FFFFFF"></rect>
    </symbol>

    <symbol id="flag-mx" viewBox="0 0 24 16">
      <rect width="8" height="16" fill="#006847"></rect>
      <rect x="8" width="8" height="16" fill="#FFFFFF"></rect>
      <rect x="16" width="8" height="16" fill="#CE1126"></rect>
      <circle cx="12" cy="8" r="1.4" fill="none" stroke="#9D5C13" stroke-width="0.4"></circle>
    </symbol>

    <symbol id="flag-br" viewBox="0 0 24 16">
      <rect width="24" height="16" fill="#009C3B"></rect>
      <path d="M12 2.4L21.6 8 12 13.6 2.4 8Z" fill="#FFDF00"></path>
      <circle cx="12" cy="8" r="2.6" fill="#002776"></circle>
    </symbol>

    <symbol id="flag-jp" viewBox="0 0 24 16">
      <rect width="24" height="16" fill="#FFFFFF"></rect>
      <circle cx="12" cy="8" r="4" fill="#BC002D"></circle>
    </symbol>

    <symbol id="flag-sg" viewBox="0 0 24 16">
      <rect width="24" height="8" fill="#EF3340"></rect>
      <rect y="8" width="24" height="8" fill="#FFFFFF"></rect>
      <circle cx="6" cy="4" r="2.4" fill="#FFFFFF"></circle>
      <circle cx="7.1" cy="4" r="2" fill="#EF3340"></circle>
      <g fill="#FFFFFF">
        <circle cx="9.7" cy="3" r="0.4"></circle>
        <circle cx="11" cy="4" r="0.4"></circle>
        <circle cx="9.7" cy="5" r="0.4"></circle>
        <circle cx="8.4" cy="4.6" r="0.4"></circle>
        <circle cx="8.4" cy="3.4" r="0.4"></circle>
      </g>
    </symbol>

    <symbol id="flag-hk" viewBox="0 0 24 16">
      <rect width="24" height="16" fill="#DE2910"></rect>
      <g transform="translate(12 8)" fill="#FFFFFF">
        <path d="M0 -3 L0.9 -0.9 L3 0 L0.9 0.9 L0 3 L-0.9 0.9 L-3 0 L-0.9 -0.9 Z"></path>
      </g>
    </symbol>

    <symbol id="flag-au" viewBox="0 0 24 16">
      <rect width="24" height="16" fill="#012169"></rect>
      <rect width="10" height="8" fill="#012169"></rect>
      <path d="M0 0L10 8M10 0L0 8" stroke="#FFFFFF" stroke-width="0.8"></path>
      <rect x="4.5" width="1" height="8" fill="#FFFFFF"></rect>
      <rect y="3.5" width="10" height="1" fill="#FFFFFF"></rect>
      <g fill="#FFFFFF">
        <circle cx="6" cy="12" r="0.6"></circle>
        <circle cx="13" cy="3" r="0.5"></circle>
        <circle cx="16" cy="6" r="0.5"></circle>
        <circle cx="19" cy="11" r="0.6"></circle>
        <circle cx="16" cy="13" r="0.5"></circle>
        <circle cx="21" cy="8" r="0.5"></circle>
      </g>
    </symbol>

    <symbol id="flag-internal" viewBox="0 0 24 16">
      <rect width="24" height="16" fill="#FAF7F4" stroke="#B85C3A" stroke-width="0.5"></rect>
      <circle cx="12" cy="8" r="3.2" fill="#B85C3A"></circle>
    </symbol>

    <symbol id="flag-id" viewBox="0 0 24 16">
      <rect width="24" height="8" fill="#CE1126"></rect>
      <rect y="8" width="24" height="8" fill="#FFFFFF"></rect>
    </symbol>

    <symbol id="flag-my" viewBox="0 0 24 16">
      <rect width="24" height="16" fill="#FFFFFF"></rect>
      <g fill="#CC0001">
        <rect width="24" height="1.14"></rect>
        <rect y="2.29" width="24" height="1.14"></rect>
        <rect y="4.57" width="24" height="1.14"></rect>
        <rect y="6.86" width="24" height="1.14"></rect>
        <rect y="9.14" width="24" height="1.14"></rect>
        <rect y="11.43" width="24" height="1.14"></rect>
        <rect y="13.71" width="24" height="2.29"></rect>
      </g>
      <rect width="10" height="9" fill="#010066"></rect>
      <circle cx="4.4" cy="4.4" r="1.8" fill="#FFCC00"></circle>
      <circle cx="5.2" cy="4.4" r="1.5" fill="#010066"></circle>
      <path d="M7.5 4.4l-0.55 0.4 0.21 -0.65 -0.55 -0.4 0.68 0 0.21 -0.65 0.21 0.65 0.68 0 -0.55 0.4 0.21 0.65z" fill="#FFCC00"></path>
    </symbol>

    <symbol id="flag-vn" viewBox="0 0 24 16">
      <rect width="24" height="16" fill="#DA251D"></rect>
      <path d="M12 4.4l1.2 3.6h3.6l-2.9 2.2 1.1 3.4-2.9-2.2-2.9 2.2 1.1-3.4-2.9-2.2h3.6z" fill="#FFFF00"></path>
    </symbol>

    <symbol id="flag-th" viewBox="0 0 24 16">
      <rect width="24" height="2.67" fill="#A51931"></rect>
      <rect y="2.67" width="24" height="2.67" fill="#FFFFFF"></rect>
      <rect y="5.33" width="24" height="5.33" fill="#2D2A4A"></rect>
      <rect y="10.67" width="24" height="2.67" fill="#FFFFFF"></rect>
      <rect y="13.33" width="24" height="2.67" fill="#A51931"></rect>
    </symbol>

  </defs>
</svg>